<svg xmlns="http://www.w3.org/2000/svg" viewBox="0 0 256 256" fill="currentColor" id="Airplane-Fill--Streamline-Phosphor-Fill">
  <desc>
    Airplane Fill Streamline Icon: https://streamlinehq.com
  </desc>
  <path d="M253.4322 136.9517v35.8378c0 4.9482 -4.0112 8.9594 -8.9594 8.9594 -0.5907 0.0014 -1.18 -0.0586 -1.7583 -0.1792L159.3581 164.95v26.5759l19.7779 19.7668c1.6689 1.6707 2.6107 3.9326 2.6207 6.294v26.8783c0.011 6.36 -6.4234 10.7061 -12.3193 8.3211L128 236.2l-41.4374 16.5861c-5.8959 2.385 -12.3303 -1.9611 -12.3193 -8.3211v-26.8783c-0.0018 -2.3769 0.9409 -4.6571 2.6207 -6.3388l19.7779 -19.7668V164.95l-83.3564 16.6197c-0.5783 0.1205 -1.1676 0.1806 -1.7583 0.1792 -4.9482 0 -8.9595 -4.0113 -8.9595 -8.9594v-35.8378c-0.0024 -3.3949 1.9142 -6.4995 4.9501 -8.0187l89.1241 -44.5509v-50.464c0 -24.1395 26.1318 -39.2266 47.0371 -27.1569 9.7022 5.6016 15.6791 15.9537 15.6791 27.1569v50.464l89.124 44.5509c3.036 1.5192 4.9526 4.6238 4.9501 8.0187Z" stroke-width="1"></path>
</svg>