<svg xmlns="http://www.w3.org/2000/svg" viewBox="0 0 256 256" fill="currentColor" id="Airplane-Tilt-Fill--Streamline-Phosphor-Fill">
  <desc>
    Airplane Tilt Fill Streamline Icon: https://streamlinehq.com
  </desc>
  <path d="M242.8025 209.8501c1.3323 3.6629 0.4226 7.766 -2.3328 10.5228l-30.1011 30.1011c-1.8812 1.8858 -4.4351 2.9461 -7.0988 2.9474 -0.3301 0.0184 -0.6608 0.0184 -0.9909 0 -2.9914 -0.2946 -5.6933 -1.9147 -7.3622 -4.4149l-55.2731 -82.9284 -26.677 26.6269v30.6153c-0.0012 2.6575 -1.0567 5.2061 -2.9349 7.0863s-17.5589 17.6342 -19.9168 19.9168c-0.9802 1.0264 -2.1692 1.8304 -3.4867 2.358 -5.112 2.0822 -10.9458 -0.3555 -13.0564 -5.4559l-0.0752 -0.1881 -18.4369 -46.1048 -46.1926 -18.4745c-6.6847 -2.6742 -8.4607 -11.31 -3.3738 -16.4051l20.0673 -20.0674c1.8925 -1.8904 4.4616 -2.9469 7.1365 -2.9348h30.6027l26.6771 -26.6771L7.061 61.0881c-5.2752 -3.5117 -6.0142 -10.9738 -1.5301 -15.4519l30.101 -30.101c2.7568 -2.7555 6.8599 -3.6651 10.5229 -2.3329l107.7869 39.1941 39.5452 -39.5452c19.1168 -19.1168 51.7592 -10.3703 58.7564 15.7437 3.2474 12.1195 -0.2175 25.0509 -9.0896 33.923l-39.5453 39.5453Z" stroke-width="1"></path>
</svg>