<svg xmlns="http://www.w3.org/2000/svg" viewBox="0 0 256 256" fill="currentColor" id="Baby-Carriage--Streamline-Phosphor">
  <desc>
    Baby Carriage Streamline Icon: https://streamlinehq.com
  </desc>
  <path d="M166.9297 15.5366h-8.6511c-9.5556 0 -17.302 7.7464 -17.302 17.302v60.5573H53.6011C49.4629 73.2695 31.7584 58.8168 11.211 58.7917c-6.6595 0 -10.8218 7.2092 -7.492 12.9766 1.5453 2.6765 4.4015 4.3254 7.492 4.3255 14.3331 0.0006 25.9531 11.62 25.9531 25.9531 0.0537 47.7561 38.7543 86.4567 86.5104 86.5103h43.2551c66.5957 0 108.218 -72.0919 74.9202 -129.7655 -15.4536 -26.7664 -44.013 -43.2552 -74.9202 -43.2552Zm68.6459 77.8593h-61.2818l45.2666 -36.2154c8.7663 10.2451 14.3346 22.8368 16.0152 36.2154Zm-68.6459 -60.5573c14.2045 -0.0133 28.0646 4.3725 39.6758 12.5548l-48.3269 38.6485V32.8386Zm0 138.4166h-43.2552c-34.8622 -0.0421 -64.267 -25.9739 -68.6676 -60.5573h180.5903c-4.4006 34.5834 -33.8054 60.5152 -68.6676 60.5573Zm-60.5573 51.9062c0 13.3191 -14.4184 21.6436 -25.9531 14.984 -11.5347 -6.6596 -11.5347 -23.3085 0 -29.968 2.6303 -1.5186 5.6139 -2.3181 8.651 -2.3181 9.5557 0 17.3021 7.7464 17.3021 17.3021Zm112.4635 0c0 13.3191 -14.4184 21.6436 -25.9531 14.984 -11.5348 -6.6596 -11.5348 -23.3085 0 -29.968 2.6302 -1.5186 5.6138 -2.3181 8.651 -2.3181 9.5557 0 17.3021 7.7464 17.3021 17.3021Z" stroke-width="1"></path>
</svg>