<svg xmlns="http://www.w3.org/2000/svg" viewBox="0 0 256 256" fill="currentColor" id="Baby--Streamline-Phosphor">
  <desc>
    Baby Streamline Icon: https://streamlinehq.com
  </desc>
  <path d="M84.5785 142.4738c-11.142 0.0005 -18.1056 -12.0607 -12.5351 -21.7102 5.5706 -9.6494 19.498 -9.6501 25.0695 -0.0011 1.2705 2.2004 1.9394 4.6966 1.9394 7.2375 0 7.9934 -6.4804 14.4735 -14.4738 14.4738Zm86.843 -28.9476c-11.1419 0 -18.1057 12.0615 -12.5347 21.7107 5.571 9.6493 19.4985 9.6493 25.0695 0 1.2703 -2.2003 1.9391 -4.6962 1.9391 -7.2369 0 -7.9937 -6.4802 -14.4738 -14.4739 -14.4738Zm-14.7995 54.5543c-17.5304 10.8801 -39.7136 10.8801 -57.244 0 -6.286 -3.9647 -14.5066 0.3621 -14.7971 7.7882 -0.1349 3.4465 1.5792 6.7031 4.4965 8.5431 23.8234 14.8513 54.0218 14.8513 77.8452 0 6.2859 -3.9647 5.9227 -13.2473 -0.6538 -16.7087 -3.0521 -1.6065 -6.7295 -1.4626 -9.6468 0.3774ZM253.44 128c0 96.5638 -104.5333 156.9161 -188.16 108.6342 -83.6267 -48.2819 -83.6267 -168.9866 0 -217.2684C84.3493 8.3561 105.9807 2.56 128 2.56c69.2483 0.0732 125.3669 56.1917 125.44 125.44Zm-19.2985 0c-0.0697 -56.7577 -44.7268 -103.4435 -101.4254 -106.033 -13.9794 19.6483 -14.3653 38.3436 -14.3653 38.4884 0 7.428 8.041 12.0705 14.4738 8.3565 2.9855 -1.7237 4.8246 -4.9092 4.8246 -8.3565 0 -7.428 8.0411 -12.0705 14.4739 -8.3565 2.9855 1.7237 4.8246 4.9091 4.8246 8.3565 0 22.2839 -24.1231 36.2114 -43.4215 25.0694 -8.9565 -5.171 -14.4739 -14.7274 -14.4739 -25.0694 0 -0.8805 0.1568 -17.248 10.2041 -36.9445C28.8327 37.9398 -5.8125 134.019 46.8951 196.4535c52.7077 62.4346 153.2373 44.3985 180.9534 -32.4649 4.162 -11.5423 6.2912 -23.7188 6.293 -35.9886Z" stroke-width="1"></path>
</svg>