<svg xmlns="http://www.w3.org/2000/svg" viewBox="0 0 256 256" fill="currentColor" id="Backpack--Streamline-Phosphor">
  <desc>
    Backpack Streamline Icon: https://streamlinehq.com
  </desc>
  <path d="M172.8 39.0496V29.44c0 -14.8454 -12.0346 -26.88 -26.88 -26.88h-35.84c-14.8454 0 -26.88 12.0346 -26.88 26.88v9.6096C52.3662 43.5438 29.4864 69.9605 29.44 101.12v134.4c0 9.8973 8.0227 17.9204 17.92 17.92h161.28c9.8973 0.0004 17.92 -8.0227 17.92 -17.92v-134.4c-0.0464 -31.1595 -22.9262 -57.5762 -53.76 -62.0704ZM110.08 20.48h35.84c4.9483 0.0002 8.96 4.0117 8.96 8.96v8.96h-53.76v-8.96c0 -4.9485 4.0115 -8.96 8.96 -8.96ZM172.8 172.8H83.2v-8.96c0 -4.9485 4.0115 -8.96 8.96 -8.96h71.68c4.9485 0 8.96 4.0115 8.96 8.96Zm-89.6 17.92h53.76v8.96c0 6.8974 7.4667 11.2083 13.44 7.7596 2.7722 -1.6006 4.48 -4.5585 4.48 -7.7596v-8.96h17.92v44.8H83.2Zm125.44 44.8h-17.92v-71.68c0 -14.8449 -12.0351 -26.8793 -26.88 -26.88H92.16c-14.8459 -0.0007 -26.88 12.0341 -26.88 26.88v71.68H47.36v-134.4c0 -24.7424 20.0576 -44.8 44.8 -44.8h71.68c24.7424 0 44.8 20.0576 44.8 44.8v134.4ZM154.88 92.16c0 4.9483 -4.0117 8.9598 -8.96 8.96h-35.84c-6.8974 0 -11.2083 -7.4667 -7.7596 -13.44 1.6005 -2.7721 4.5586 -4.4799 7.7596 -4.48h35.84c4.9485 0 8.96 4.0115 8.96 8.96Z" stroke-width="1"></path>
</svg>