<svg xmlns="http://www.w3.org/2000/svg" viewBox="0 0 256 256" fill="currentColor" id="Paw-Print--Streamline-Phosphor">
  <desc>
    Paw Print Streamline Icon: https://streamlinehq.com
  </desc>
  <path d="M222.08 74.1294c-24.1409 0 -39.229 26.1333 -27.1586 47.04 12.0705 20.9066 42.2467 20.9066 54.3172 0 2.7524 -4.7673 4.2014 -10.1752 4.2014 -15.68 0 -17.3197 -14.0404 -31.36 -31.36 -31.36Zm0 44.8c-10.3461 0.0004 -16.8123 -11.1993 -11.6397 -20.1595 5.1727 -8.9602 18.1053 -8.9608 23.2788 -0.001 1.1798 2.0432 1.8009 4.3611 1.8009 6.7205 0 7.4224 -6.0175 13.4396 -13.44 13.44Zm-156.8 -13.44c0 -24.141 -26.1333 -39.2291 -47.04 -27.1586 -20.9067 12.0705 -20.9067 42.2467 0 54.3171 4.7673 2.7524 10.1752 4.2015 15.68 4.2015 17.3196 0 31.36 -14.0404 31.36 -31.36Zm-31.36 13.44c-10.3461 0.0004 -16.8123 -11.1993 -11.6397 -20.1595 5.1727 -8.9602 18.1053 -8.9608 23.2788 -0.001 1.1798 2.0432 1.8009 4.3611 1.8009 6.7205 0 7.4224 -6.0175 13.4396 -13.44 13.44Zm53.76 -35.84c24.1409 0 39.229 -26.1334 27.1586 -47.04 -12.0705 -20.9067 -42.2467 -20.9067 -54.3172 0 -2.7524 4.7673 -4.2014 10.1751 -4.2014 15.68 0 17.3196 14.0404 31.36 31.36 31.36Zm0 -44.8c10.3461 0.0004 16.8125 11.2007 11.6391 20.1605 -5.1735 8.9598 -18.1061 8.9592 -23.2788 -0.001 -1.1794 -2.0431 -1.8003 -4.3605 -1.8003 -6.7195 0 -7.423 6.0171 -13.4404 13.44 -13.44Zm80.64 44.8c24.1409 0 39.229 -26.1334 27.1586 -47.04 -12.0705 -20.9067 -42.2467 -20.9067 -54.3172 0 -2.7524 4.7673 -4.2014 10.1751 -4.2014 15.68 0 17.3196 14.0404 31.36 31.36 31.36Zm0 -44.8c10.3461 0.0004 16.8125 11.2007 11.6391 20.1605 -5.1735 8.9598 -18.1061 8.9592 -23.2788 -0.001 -1.1794 -2.0431 -1.8003 -4.3605 -1.8003 -6.7195 0 -7.423 6.0171 -13.4404 13.44 -13.44Zm25.8944 112.9632c-9.1917 -5.0709 -15.9894 -13.5891 -18.8944 -23.6768 -10.5924 -36.427 -56.646 -47.7272 -82.8965 -20.3404 -5.4966 5.7345 -9.5255 12.7129 -11.7435 20.3404 -2.8778 10.0504 -9.6244 18.5492 -18.76 23.632 -30.3314 16.4123 -31.5216 59.5047 -2.1424 77.5663 7.0453 4.3313 15.1521 6.6278 23.4224 6.6353 5.9714 0.0171 11.8844 -1.1754 17.3824 -3.5056 17.5287 -7.2291 37.2057 -7.2291 54.7344 0 31.6255 13.7545 66.2811 -11.8845 62.3801 -46.1502 -1.6692 -14.6625 -10.4522 -27.5625 -23.4825 -34.4898ZM172.8 217.4894c-3.6379 0.0031 -7.2386 -0.7323 -10.584 -2.1616 -21.9451 -9.0646 -46.5877 -9.0646 -68.5328 0 -19.0054 8.1831 -39.7423 -7.2764 -37.3264 -27.8271 1.0322 -8.7802 6.3158 -16.4916 14.1312 -20.6241 13.3285 -7.3609 23.1839 -19.7184 27.3952 -34.3504 6.7298 -23.1839 36.0333 -30.3886 52.7463 -12.9685 3.5064 3.6548 6.0754 8.1045 7.4873 12.9685 4.2251 14.6595 14.1102 27.035 27.4736 34.3952 18.2351 9.78 19.0449 35.6326 1.4576 46.5347 -4.278 2.6519 -9.2147 4.0493 -14.248 4.0333Z" stroke-width="1"></path>
</svg>