<svg xmlns="http://www.w3.org/2000/svg" viewBox="0 0 256 256" fill="currentColor" id="Suitcase--Streamline-Phosphor">
  <desc>
    Suitcase Streamline Icon: https://streamlinehq.com
  </desc>
  <path d="M234.1415 50.8062h-48.2461v-9.6493c0 -15.9873 -12.9603 -28.9477 -28.9477 -28.9477H99.0523c-15.9874 0 -28.9477 12.9604 -28.9477 28.9477v9.6493H21.8585c-10.6583 0 -19.2985 8.6402 -19.2985 19.2984v154.3877c0 10.6586 8.6399 19.2989 19.2985 19.2985h212.283c10.6579 -0.0005 19.2985 -8.6406 19.2985 -19.2985V70.1046c0 -10.6579 -8.6406 -19.298 -19.2985 -19.2984ZM89.4031 41.1569c0 -5.3293 4.3199 -9.6494 9.6492 -9.6492h57.8954c5.3291 0 9.6492 4.3201 9.6492 9.6492v9.6492H89.4031Zm77.1938 28.9477v154.3877H89.4031V70.1046Zm-144.7384 0h48.2461v154.3877H21.8585Zm212.283 154.3877h-48.2461V70.1046h48.2461v154.3877Z" stroke-width="1"></path>
</svg>