<svg xmlns="http://www.w3.org/2000/svg" viewBox="0 0 256 256" fill="currentColor" id="Suitcase-Rolling--Streamline-Phosphor">
  <desc>
    Suitcase Rolling Streamline Icon: https://streamlinehq.com
  </desc>
  <path d="M103.7213 91.5819v97.1149c0 6.2299 -6.7441 10.1236 -12.1394 7.0086 -2.5039 -1.4456 -4.0464 -4.1173 -4.0464 -7.0086V91.5819c0 -6.2299 6.7441 -10.1236 12.1393 -7.0086 2.504 1.4456 4.0465 4.1173 4.0465 7.0086ZM128 83.489c-4.4696 0 -8.0929 3.6234 -8.0929 8.0929v97.1149c0 6.2299 6.7441 10.1236 12.1394 7.0086 2.5039 -1.4456 4.0464 -4.1173 4.0464 -7.0086V91.5819c0 -4.4695 -3.6233 -8.0929 -8.0929 -8.0929Zm32.3716 0c-4.4696 0 -8.0929 3.6234 -8.0929 8.0929v97.1149c0 6.2299 6.7441 10.1236 12.1394 7.0086 2.5039 -1.4456 4.0464 -4.1173 4.0464 -7.0086V91.5819c0 -4.4695 -3.6233 -8.0929 -8.0929 -8.0929Zm48.5574 -16.1858v145.6723c0 8.9392 -7.2466 16.1858 -16.1858 16.1858h-16.1858v16.1858c0 6.2299 -6.7441 10.1236 -12.1393 7.0087 -2.504 -1.4457 -4.0465 -4.1174 -4.0465 -7.0087v-16.1858H95.6284v16.1858c0 6.2299 -6.7441 10.1236 -12.1394 7.0087 -2.5039 -1.4457 -4.0464 -4.1174 -4.0464 -7.0087v-16.1858H63.2568c-8.9392 0 -16.1858 -7.2466 -16.1858 -16.1858V67.3032c0 -8.9391 7.2466 -16.1858 16.1858 -16.1858h24.2787V26.8387c0 -13.4092 10.8695 -24.2793 24.2787 -24.2787h32.3716c13.4088 0 24.2787 10.8699 24.2787 24.2787v24.2787h24.2787c8.9389 0.0004 16.1858 7.2469 16.1858 16.1858ZM103.7213 51.1174h48.5574V26.8387c0 -4.4696 -3.6233 -8.0929 -8.0929 -8.0929h-32.3716c-4.4696 0 -8.0929 3.6233 -8.0929 8.0929Zm89.0219 161.8581V67.3032H63.2568v145.6723h129.4864Z" stroke-width="1"></path>
</svg>