<svg xmlns="http://www.w3.org/2000/svg" viewBox="0 0 256 256" fill="currentColor" id="User-Check--Streamline-Phosphor">
  <desc>
    User Check Streamline Icon: https://streamlinehq.com
  </desc>
  <path d="M136.3346 167.4156c46.4564 -28.9347 44.169 -97.3094 -4.1174 -123.0746 -48.2864 -25.7651 -106.3569 10.4033 -104.527 65.1031 0.7927 23.6957 13.3451 45.4371 33.4699 57.9715 -21.5905 7.0679 -41.0166 20.2731 -56.637 38.8628 -4.1451 4.9298 -1.3991 12.498 4.9427 13.6228 2.9433 0.522 5.9414 -0.5658 7.8652 -2.8537 20.984 -25.0512 49.9037 -38.8419 81.3641 -38.8419s60.38 13.7907 81.4164 38.8419c4.145 4.9298 12.0723 3.5237 14.269 -2.5308 1.0196 -2.81 0.4626 -5.9504 -1.4611 -8.2383 -15.6204 -18.5897 -35.0466 -31.7949 -56.5848 -38.8628Zm-92.0077 -60.3069c0 -41.8526 45.3068 -68.0106 81.5523 -47.0842 36.2454 20.9263 36.2454 73.2421 0 94.1685 -8.265 4.7718 -17.6405 7.2839 -27.1841 7.2839 -30.0124 -0.0346 -54.3337 -24.3558 -54.3682 -54.3682Zm206.6619 35.193 -33.4574 33.4573c-3.2672 3.2709 -8.5683 3.2709 -11.8355 0l-16.7287 -16.7286c-4.5555 -4.5555 -2.4712 -12.3342 3.7517 -14.0016 2.8881 -0.7739 5.9696 0.0518 8.0838 2.166l10.8109 10.8214 27.5396 -27.5501c4.5555 -4.5555 12.3342 -2.4712 14.0016 3.7518 0.7739 2.888 -0.0518 5.9696 -2.166 8.0838Z" stroke-width="1"></path>
</svg>